<svg width="20" height="20" viewBox="0 0 20 20" fill="none" xmlns="http://www.w3.org/2000/svg">
<path d="M17.9173 13.3346L18.4063 13.9033C18.6787 13.669 18.7468 13.2745 18.5685 12.9625L17.9173 13.3346ZM2.08398 13.3346L1.4328 12.9625C1.25454 13.2745 1.32256 13.669 1.59499 13.9033L2.08398 13.3346ZM16.2507 10.418H15.5007V10.6171L15.5995 10.7901L16.2507 10.418ZM3.75065 10.418L4.40183 10.7901L4.50065 10.6171V10.418H3.75065ZM10.0007 16.5846C13.3986 16.5846 16.478 15.5615 18.4063 13.9033L17.4283 12.766C15.8376 14.1338 13.1367 15.0846 10.0007 15.0846V16.5846ZM1.59499 13.9033C3.52332 15.5615 6.60268 16.5846 10.0007 16.5846V15.0846C6.86458 15.0846 4.16373 14.1338 2.57298 12.766L1.59499 13.9033ZM18.5685 12.9625L16.9018 10.0459L15.5995 10.7901L17.2661 13.7067L18.5685 12.9625ZM17.0007 10.418V7.91797H15.5007V10.418H17.0007ZM3.00065 7.91797V10.418H4.50065V7.91797H3.00065ZM3.09947 10.0459L1.4328 12.9625L2.73517 13.7067L4.40183 10.7901L3.09947 10.0459ZM10.0007 0.917969C6.13466 0.917969 3.00065 4.05198 3.00065 7.91797H4.50065C4.50065 4.8804 6.96308 2.41797 10.0007 2.41797V0.917969ZM17.0007 7.91797C17.0007 4.05198 13.8666 0.917969 10.0007 0.917969V2.41797C13.0382 2.41797 15.5007 4.8804 15.5007 7.91797H17.0007Z" fill="#9496AC"/>
<path d="M13.3346 15.0026C13.3346 16.8436 11.8423 18.3359 10.0013 18.3359C8.16035 18.3359 6.66797 16.8436 6.66797 15.0026" stroke="#9496AC" stroke-width="1.5" stroke-linejoin="round"/>
</svg>
