<svg width="20" height="20" viewBox="0 0 20 20" fill="none" xmlns="http://www.w3.org/2000/svg">
<g clip-path="url(#clip0_1591_113025)">
<path d="M3.33398 14.9853V8.09091C3.33398 5.06311 3.33398 3.5492 4.3103 2.60859C5.28661 1.66797 6.85795 1.66797 10.0007 1.66797C13.1433 1.66797 14.7147 1.66797 15.691 2.60859C16.6673 3.5492 16.6673 5.06311 16.6673 8.09091V14.9853C16.6673 16.9069 16.6673 17.8676 16.0233 18.2115C14.7761 18.8775 12.4367 16.6556 11.3256 15.9866C10.6813 15.5987 10.3591 15.4047 10.0007 15.4047C9.64216 15.4047 9.31999 15.5987 8.67565 15.9866C7.56465 16.6556 5.22521 18.8775 3.97802 18.2115C3.33398 17.8676 3.33398 16.9069 3.33398 14.9853Z" stroke="#9496AC" stroke-width="1.5" stroke-linecap="round" stroke-linejoin="round"/>
</g>
<defs>
<clipPath id="clip0_1591_113025">
<rect width="20" height="20" fill="white"/>
</clipPath>
</defs>
</svg>
